<?xml version="1.0" ?><svg style="enable-background:new 0 0 24 24;" version="1.1" viewBox="0 0 24 24" xml:space="preserve" xmlns="http://www.w3.org/2000/svg" xmlns:xlink="http://www.w3.org/1999/xlink"><style type="text/css">
	.st0{display:none;}
</style><g class="st0" id="grid"/><g id="icon"><path d="M1.595,21h12.81C15.284,21,16,20.284,16,19.404V5.5c0-0.065-0.013-0.13-0.038-0.191c-0.025-0.062-0.062-0.117-0.109-0.163   l-4.999-4.999c-0.046-0.046-0.102-0.083-0.163-0.109C10.63,0.013,10.565,0,10.5,0H1.595C0.716,0,0,0.716,0,1.595v17.81   C0,20.284,0.716,21,1.595,21z M11,1.707L14.293,5H11V1.707z M1,1.595C1,1.267,1.267,1,1.595,1H10v4.5C10,5.776,10.224,6,10.5,6H15   v13.404C15,19.732,14.733,20,14.405,20H1.595C1.267,20,1,19.732,1,19.404V1.595z"/><path d="M4.875,9.382h6.25c0.276,0,0.5-0.224,0.5-0.5s-0.224-0.5-0.5-0.5h-6.25c-0.276,0-0.5,0.224-0.5,0.5   S4.599,9.382,4.875,9.382z"/><path d="M4.875,12.764h6.25c0.276,0,0.5-0.224,0.5-0.5s-0.224-0.5-0.5-0.5h-6.25c-0.276,0-0.5,0.224-0.5,0.5   S4.599,12.764,4.875,12.764z"/><path d="M4.875,16.145h6.25c0.276,0,0.5-0.224,0.5-0.5s-0.224-0.5-0.5-0.5h-6.25c-0.276,0-0.5,0.224-0.5,0.5   S4.599,16.145,4.875,16.145z"/><path d="M22.651,3h-4.655c-0.276,0-0.5,0.224-0.5,0.5s0.224,0.5,0.5,0.5h4.655C22.843,4,23,4.156,23,4.349v18.303   C23,22.844,22.843,23,22.651,23H9.349C9.157,23,9,22.844,9,22.651c0-0.276-0.224-0.5-0.5-0.5S8,22.375,8,22.651   C8,23.395,8.605,24,9.349,24h13.302C23.395,24,24,23.395,24,22.651V4.349C24,3.605,23.395,3,22.651,3z"/></g></svg>