<!DOCTYPE svg PUBLIC "-//W3C//DTD SVG 20010904//EN" "http://www.w3.org/TR/2001/REC-SVG-20010904/DTD/svg10.dtd">
<svg version="1.0" xmlns="http://www.w3.org/2000/svg" width="151px" height="130px" viewBox="0 0 1510 1300" preserveAspectRatio="xMidYMid meet">
<g id="layer101" fill="#078440" stroke="none">
<path d="M16 1284 c-26 -25 -34 -9 129 -239 l94 -132 127 -73 c126 -71 128 -72 155 -56 32 19 87 21 123 5 22 -11 33 -5 119 57 82 60 95 74 101 104 3 22 19 49 41 70 66 64 157 42 199 -47 14 -29 35 -49 73 -72 29 -18 57 -30 62 -26 11 6 244 333 262 366 8 16 7 25 -7 40 -17 18 -40 19 -740 19 -644 0 -724 -2 -738 -16z"/>
</g>
<g id="layer102" fill="#00b453" stroke="none">
<path d="M1040 819 c-43 -23 -69 -24 -114 -3 l-34 17 -89 -65 c-83 -60 -88 -66 -94 -108 -8 -61 -62 -110 -120 -110 -68 0 -129 52 -129 112 0 19 -16 32 -84 69 -81 44 -85 46 -110 30 -16 -10 -26 -25 -26 -39 0 -25 481 -709 506 -719 8 -3 21 0 29 7 31 26 495 691 495 709 0 14 -25 35 -84 70 -46 28 -90 50 -97 50 -8 -1 -30 -10 -49 -20z"/>
</g>


</svg>